<svg width="25" height="25" viewBox="0 0 25 25" fill="none" xmlns="http://www.w3.org/2000/svg">
<path d="M12.5 0C19.4036 2.57703e-07 25 5.59644 25 12.5C25 19.4036 19.4036 25 12.5 25C5.59644 25 2.57711e-07 19.4036 0 12.5C0 5.59644 5.59644 0 12.5 0ZM18.6416 8.56836C18.8515 7.72696 18.3212 7.3446 17.7715 7.59375L5.73047 12.2373C4.90879 12.5669 4.91325 13.0251 5.58008 13.2295L8.6709 14.1943L15.8242 9.68066C16.1618 9.47617 16.471 9.58585 16.2168 9.81152L10.4209 15.043L10.208 18.2295C10.5203 18.2295 10.6587 18.0864 10.833 17.917L12.335 16.457L15.458 18.7646C16.0329 19.0818 16.4476 18.9171 16.5908 18.2305L18.6416 8.56836Z" fill="black"/>
</svg>
