<svg width="35" height="35" viewBox="0 0 35 35" fill="none" xmlns="http://www.w3.org/2000/svg">
<path d="M33.5417 5.38462H26.25V4.03846C26.25 2.9674 25.7891 1.9402 24.9686 1.18284C24.1481 0.42548 23.0353 0 21.875 0H13.125C11.9647 0 10.8519 0.42548 10.0314 1.18284C9.21094 1.9402 8.75 2.9674 8.75 4.03846V5.38462H1.45833C1.07156 5.38462 0.700627 5.52644 0.427136 5.77889C0.153646 6.03135 0 6.37375 0 6.73077C0 7.08779 0.153646 7.43019 0.427136 7.68264C0.700627 7.9351 1.07156 8.07692 1.45833 8.07692H2.91667V32.3077C2.91667 33.0217 3.22396 33.7065 3.77094 34.2114C4.31792 34.7163 5.05979 35 5.83333 35H29.1667C29.9402 35 30.6821 34.7163 31.2291 34.2114C31.776 33.7065 32.0833 33.0217 32.0833 32.3077V8.07692H33.5417C33.9284 8.07692 34.2994 7.9351 34.5729 7.68264C34.8464 7.43019 35 7.08779 35 6.73077C35 6.37375 34.8464 6.03135 34.5729 5.77889C34.2994 5.52644 33.9284 5.38462 33.5417 5.38462ZM14.5833 25.5769C14.5833 25.9339 14.4297 26.2763 14.1562 26.5288C13.8827 26.7813 13.5118 26.9231 13.125 26.9231C12.7382 26.9231 12.3673 26.7813 12.0938 26.5288C11.8203 26.2763 11.6667 25.9339 11.6667 25.5769V14.8077C11.6667 14.4507 11.8203 14.1083 12.0938 13.8558C12.3673 13.6034 12.7382 13.4615 13.125 13.4615C13.5118 13.4615 13.8827 13.6034 14.1562 13.8558C14.4297 14.1083 14.5833 14.4507 14.5833 14.8077V25.5769ZM23.3333 25.5769C23.3333 25.9339 23.1797 26.2763 22.9062 26.5288C22.6327 26.7813 22.2618 26.9231 21.875 26.9231C21.4882 26.9231 21.1173 26.7813 20.8438 26.5288C20.5703 26.2763 20.4167 25.9339 20.4167 25.5769V14.8077C20.4167 14.4507 20.5703 14.1083 20.8438 13.8558C21.1173 13.6034 21.4882 13.4615 21.875 13.4615C22.2618 13.4615 22.6327 13.6034 22.9062 13.8558C23.1797 14.1083 23.3333 14.4507 23.3333 14.8077V25.5769ZM23.3333 5.38462H11.6667V4.03846C11.6667 3.68144 11.8203 3.33904 12.0938 3.08659C12.3673 2.83413 12.7382 2.69231 13.125 2.69231H21.875C22.2618 2.69231 22.6327 2.83413 22.9062 3.08659C23.1797 3.33904 23.3333 3.68144 23.3333 4.03846V5.38462Z" fill="#FF3333"/>
</svg>
