<svg width="21" height="21" viewBox="0 0 21 21" fill="none" xmlns="http://www.w3.org/2000/svg">
<path d="M7.5 0C4.575 0 2.25 2.325 2.25 5.25C2.25 7.05 3.14971 8.70059 4.57471 9.60059C1.87471 10.7256 0 13.425 0 16.5H1.5C1.5 13.2 4.2 10.5 7.5 10.5C8.55 10.5 9.52559 10.8 10.3506 11.25C9.52559 12.3 9 13.575 9 15C9 18.3 11.7 21 15 21C18.3 21 21 18.3 21 15C21 11.7 18.3 9 15 9C13.725 9 12.4506 9.45 11.4756 10.125C11.1756 9.9 10.8003 9.75059 10.4253 9.60059C11.8503 8.62559 12.75 7.05 12.75 5.25C12.75 2.325 10.425 0 7.5 0ZM7.5 1.5C9.6 1.5 11.25 3.15 11.25 5.25C11.25 7.35 9.6 9 7.5 9C5.4 9 3.75 7.35 3.75 5.25C3.75 3.15 5.4 1.5 7.5 1.5ZM15 10.5C17.475 10.5 19.5 12.525 19.5 15C19.5 17.475 17.475 19.5 15 19.5C12.525 19.5 10.5 17.475 10.5 15C10.5 12.525 12.525 10.5 15 10.5ZM12 14.25V15.75H18V14.25H12Z" fill="white"/>
</svg>
