<svg width="25" height="25" viewBox="0 0 25 25" fill="none" xmlns="http://www.w3.org/2000/svg">
<path fill-rule="evenodd" clip-rule="evenodd" d="M13.028 25H11.987C6.33501 25 3.51 25 1.755 23.245C-1.11759e-06 21.49 0 18.665 0 13.028V11.972C0 6.33399 0 3.51 1.755 1.755C3.51 5.02914e-06 6.33501 0 11.987 0H13.028C18.679 0 21.52 5.02914e-06 23.26 1.755C25 3.51 25 6.33599 25 11.972V13.17C25.0001 18.7126 25.0002 21.5048 23.26 23.245C21.505 25 18.679 25 13.028 25ZM4.2244 7.61489C4.3574 14.1139 7.77837 18.0249 13.4154 18.0249H13.7424V14.3069C15.7944 14.5149 17.3264 16.0469 17.9514 18.0249H20.9104C20.1074 15.0659 18.0254 13.4299 16.7314 12.8049C18.0254 12.0319 19.8544 10.1579 20.2854 7.61489H17.5944C17.0284 9.68188 15.3484 11.5559 13.7424 11.7339V7.61489H11.0054V14.8279C9.34038 14.4149 7.16841 12.3889 7.07939 7.61489H4.2244Z" fill="black"/>
</svg>
