<svg width="40" height="40" viewBox="0 0 40 40" fill="none" xmlns="http://www.w3.org/2000/svg">
<path d="M15.625 33.75C15.625 34.3681 15.4417 34.9723 15.0983 35.4862C14.755 36.0001 14.2669 36.4006 13.6959 36.6371C13.1249 36.8736 12.4965 36.9355 11.8903 36.815C11.2842 36.6944 10.7273 36.3968 10.2903 35.9597C9.85325 35.5227 9.55562 34.9659 9.43505 34.3597C9.31447 33.7535 9.37635 33.1251 9.61288 32.5541C9.8494 31.9831 10.2499 31.495 10.7638 31.1517C11.2777 30.8083 11.8819 30.625 12.5 30.625C13.3288 30.625 14.1237 30.9542 14.7097 31.5403C15.2958 32.1263 15.625 32.9212 15.625 33.75ZM28.75 30.625C28.1319 30.625 27.5277 30.8083 27.0138 31.1517C26.4999 31.495 26.0994 31.9831 25.8629 32.5541C25.6264 33.1251 25.5645 33.7535 25.685 34.3597C25.8056 34.9659 26.1033 35.5227 26.5403 35.9597C26.9773 36.3968 27.5342 36.6944 28.1403 36.815C28.7465 36.9355 29.3749 36.8736 29.9459 36.6371C30.5169 36.4006 31.005 36.0001 31.3483 35.4862C31.6917 34.9723 31.875 34.3681 31.875 33.75C31.875 32.9212 31.5458 32.1263 30.9597 31.5403C30.3737 30.9542 29.5788 30.625 28.75 30.625ZM36.7922 11.8016L32.5281 25.6609C32.2559 26.5572 31.7019 27.3418 30.9484 27.8983C30.1949 28.4548 29.282 28.7535 28.3453 28.75H12.9578C12.0077 28.7469 11.0841 28.436 10.3255 27.8639C9.56691 27.2918 9.01413 26.4893 8.75 25.5766L3.40781 6.875H1.875C1.37772 6.875 0.900805 6.67746 0.549175 6.32583C0.197544 5.9742 0 5.49728 0 5C0 4.50272 0.197544 4.02581 0.549175 3.67417C0.900805 3.32254 1.37772 3.125 1.875 3.125H3.87812C4.55679 3.1271 5.21647 3.34919 5.75822 3.75797C6.29996 4.16674 6.69456 4.74015 6.88281 5.39219L8.02187 9.375H35C35.2934 9.37498 35.5828 9.44383 35.8448 9.57601C36.1068 9.7082 36.334 9.90002 36.5084 10.1361C36.6827 10.3721 36.7992 10.6458 36.8485 10.935C36.8978 11.2243 36.8785 11.5211 36.7922 11.8016ZM32.4609 13.125H9.09219L12.3563 24.5469C12.3936 24.6775 12.4726 24.7925 12.5811 24.8742C12.6897 24.956 12.8219 25.0001 12.9578 25H28.3453C28.4791 25.0003 28.6094 24.9576 28.7171 24.8783C28.8249 24.799 28.9043 24.6872 28.9437 24.5594L32.4609 13.125Z" fill="black"/>
</svg>
