<svg width="144" height="105" viewBox="0 0 144 105" fill="none" xmlns="http://www.w3.org/2000/svg">
<path opacity="0.15" d="M58.4022 94.7218L128.045 51.6089L144 61.4706L76.0953 105L58.4022 94.7218Z" fill="url(#paint0_linear_802_2)"/>
<path d="M134.723 52.5161L134.706 57.811C134.706 58.7634 134.109 59.7159 132.915 60.4423L71.9543 97.6194L71.9374 97.6356C69.5354 99.0884 65.63 99.0884 63.2126 97.6356C63.1958 97.6356 63.1958 97.6356 63.1958 97.6194L1.82199 60.4423C0.597244 59.6997 0.00170898 58.7311 0.00170898 57.7626L0.0170187 52.4838C0.0170187 51.5314 0.614084 50.5628 1.80822 49.8364L62.7855 12.6592C65.1875 11.1902 69.1083 11.1902 71.5271 12.6592L132.887 49.8364C134.11 50.579 134.723 51.5475 134.723 52.5161Z" fill="#D0DEE2"/>
<path opacity="0.1" d="M63.2079 92.3375L1.83562 55.1523C0.618524 54.4162 0.0122729 53.4476 0.0153348 52.4806L2.57706e-05 57.7658C-0.00456704 58.7344 0.604746 59.7013 1.81878 60.4375L63.191 97.6243C63.1956 97.6275 63.2017 97.6291 63.2063 97.6324V97.6243V92.3375H63.2079Z" fill="black"/>
<path opacity="0.12" d="M63.2079 92.3375V97.6243V97.6323C65.6375 99.0917 69.5368 99.09 71.9342 97.6307L71.948 97.6227V92.3423C69.546 93.8065 65.6344 93.8065 63.2079 92.3375Z" fill="black"/>
<path opacity="0.2" d="M132.931 55.1523L71.948 92.3439V97.6243L132.918 60.4391C134.109 59.711 134.704 58.7602 134.707 57.8045L134.723 52.521C134.72 53.4718 134.122 54.4226 132.931 55.1523Z" fill="black"/>
<path opacity="0.15" d="M23.7418 62.5522L49.8566 78.4126L101.474 47.0905L75.6253 31.1365" fill="url(#paint1_linear_802_2)"/>
<path d="M77.0399 32.2713L25.5101 63.6483L23.7419 62.5522L23.6393 25.9707L66.2973 0L68.064 1.08319L77.0016 13.9588L77.0399 32.2713Z" fill="#80B34F"/>
<path opacity="0.3" d="M72.5419 13.6779L74.3193 13.7909L74.3667 30.6683L28.1661 58.7909L28.085 28.6472L66.5896 5.20612L65.6067 7.95848L51.1945 16.7338L32.5277 28.0984C32.5323 29.8919 31.3459 32.0502 29.8731 32.9461L29.9267 52.3241C31.3964 51.4297 32.5936 52.1465 32.5997 53.9383L51.2634 42.577L69.9209 31.2188C69.9163 29.4253 71.1058 27.2573 72.5755 26.3598L72.5419 13.6779ZM51.2649 42.577C56.1685 39.5921 60.1336 31.3819 60.1137 24.2418C60.0938 17.1099 56.0965 13.7489 51.196 16.7338C46.2848 19.7251 42.3181 27.9337 42.3365 35.0641C42.3548 42.2057 46.3536 45.5666 51.2649 42.577Z" fill="black"/>
<path opacity="0.25" d="M25.4045 27.0523L25.5101 63.6483L23.7419 62.5522L23.6393 25.9707L66.2973 0L68.064 1.08319L25.4045 27.0523Z" fill="white"/>
<path opacity="0.4" d="M68.0624 1.07672L76.997 13.9636L63.7697 13.1161L68.0624 1.07672Z" fill="white"/>
<path opacity="0.15" d="M49.7938 73.8635L76.0953 89.8144L127.549 58.4341L103.09 43.5778" fill="url(#paint2_linear_802_2)"/>
<path d="M103.09 43.5778L51.5604 74.9597L49.7937 73.8636L49.6896 37.2756L92.3492 11.3065L94.1159 12.3881L103.053 25.2637L103.09 43.5778Z" fill="#80B34F"/>
<path opacity="0.3" d="M98.5939 24.9844L100.371 25.0974L100.419 41.9748L54.2166 70.1022L54.1355 39.9537L92.6401 16.5126L91.6572 19.2649L77.245 28.0402L58.5783 39.4048C58.5829 41.1983 57.3964 43.3566 55.9236 44.2526L55.9772 63.6338C57.4469 62.7378 58.6441 63.4562 58.6502 65.2481L77.3139 53.8834L95.9714 42.5253C95.9668 40.7318 97.1564 38.5638 98.6261 37.6663L98.5939 24.9844ZM77.3154 53.8818C82.219 50.897 86.1841 42.6867 86.1642 35.5467C86.1443 28.4147 82.1471 25.0538 77.2465 28.0386C72.3353 31.0299 68.3686 39.2386 68.387 46.3689C68.4069 53.5105 72.4042 56.8731 77.3154 53.8818Z" fill="black"/>
<path opacity="0.25" d="M51.4563 38.3588L51.5604 74.9597L49.7937 73.8636L49.6896 37.2756L92.3492 11.3065L94.1159 12.3881L51.4563 38.3588Z" fill="white"/>
<path opacity="0.4" d="M94.1145 12.3832L103.049 25.2701L89.8202 24.421L94.1145 12.3832Z" fill="white"/>
<defs>
<linearGradient id="paint0_linear_802_2" x1="106.13" y1="86.9139" x2="94.5588" y2="68.2913" gradientUnits="userSpaceOnUse">
<stop stop-opacity="0"/>
<stop offset="1"/>
</linearGradient>
<linearGradient id="paint1_linear_802_2" x1="69.923" y1="68.2172" x2="52.2402" y2="39.0908" gradientUnits="userSpaceOnUse">
<stop stop-opacity="0"/>
<stop offset="1"/>
</linearGradient>
<linearGradient id="paint2_linear_802_2" x1="96.0566" y1="79.6765" x2="78.2683" y2="50.3764" gradientUnits="userSpaceOnUse">
<stop stop-opacity="0"/>
<stop offset="1"/>
</linearGradient>
</defs>
</svg>
