<svg width="151" height="135" viewBox="0 0 151 135" fill="none" xmlns="http://www.w3.org/2000/svg">
<path opacity="0.15" d="M61.2413 124.821L134.269 82.1255L151 91.8918L79.7945 135L61.2413 124.821Z" fill="url(#paint0_linear_802_12)"/>
<path d="M141.272 83.024L141.254 88.2676C141.254 89.2108 140.628 90.154 139.376 90.8734L75.4519 127.691L75.4343 127.707C72.9155 129.146 68.8202 129.146 66.2853 127.707C66.2677 127.707 66.2677 127.707 66.2677 127.691L1.91048 90.8734C0.626193 90.1381 0.00170898 89.1789 0.00170898 88.2197L0.0177629 82.992C0.0177629 82.0488 0.643852 81.0896 1.89603 80.3702L65.8374 43.5528C68.3563 42.098 72.4676 42.098 75.004 43.5528L139.347 80.3702C140.629 81.1056 141.272 82.0648 141.272 83.024Z" fill="#D0DEE2"/>
<path opacity="0.1" d="M66.2804 122.46L1.92485 85.6346C0.648591 84.9056 0.0128695 83.9464 0.0160802 82.9888L2.70234e-05 88.2228C-0.00478905 89.182 0.634143 90.1396 1.90719 90.8686L66.2628 127.696C66.2676 127.699 66.274 127.7 66.2788 127.704V127.696V122.46H66.2804Z" fill="black"/>
<path opacity="0.12" d="M66.2805 122.46V127.696V127.704C68.8282 129.149 72.9171 129.147 75.4311 127.702L75.4455 127.694V122.465C72.9267 123.915 68.825 123.915 66.2805 122.46Z" fill="black"/>
<path opacity="0.2" d="M139.393 85.6347L75.4453 122.466V127.696L139.379 90.8703C140.628 90.1493 141.252 89.2077 141.255 88.2613L141.271 83.0288C141.268 83.9704 140.642 84.9121 139.393 85.6347Z" fill="black"/>
<path opacity="0.15" d="M110.731 91.796L82.0724 107.679L91.6082 113.156L119.681 96.9868L110.731 91.796Z" fill="url(#paint1_linear_802_12)"/>
<path d="M112.269 41.4954L112.125 91.0206C112.107 93.1628 111.354 94.6672 110.118 95.385C102.589 99.7494 95.0421 104.115 87.4985 108.477C87.5146 108.461 87.5306 108.445 87.5451 108.43C86.2945 109.198 84.5607 109.118 82.6327 107.999L32.5294 79.2064C28.7408 77.0322 25.7067 71.7566 25.7227 67.4402L25.8511 17.9134C25.8511 15.7711 26.6201 14.2524 27.8578 13.549C35.403 9.18462 42.9322 4.82025 50.4773 0.455873C51.7151 -0.263529 53.4312 -0.151622 55.3416 0.935475L105.445 29.7435C109.219 31.9193 112.269 37.179 112.269 41.4954Z" fill="#C1C1BC"/>
<path d="M86.2142 52.6221L86.1339 79.9914C86.1179 82.1512 84.5928 83.0289 82.7145 81.9434L32.5953 53.1353C30.717 52.0482 29.1919 49.4104 29.1919 47.2522L29.2722 19.8989C29.2722 17.7407 30.8133 16.8615 32.6916 17.9486L82.8108 46.7566C84.6891 47.8421 86.2142 50.4639 86.2142 52.6221Z" fill="#47475E"/>
<path opacity="0.1" d="M61.7228 38.549L32.6851 21.8541L32.6674 28.1512L32.608 49.2153L82.7177 78.0266L82.7963 50.6637L61.7228 38.549Z" fill="white"/>
<path opacity="0.4" d="M64.4392 87.0991L64.4231 92.306L30.2611 72.6679L30.2772 67.4594L64.4392 87.0991Z" fill="black"/>
<path opacity="0.2" d="M30.2611 72.7063L34.8155 70.07L30.2772 67.4594L30.2611 72.7063Z" fill="black"/>
<path opacity="0.4" d="M84.9701 88.4563L84.954 93.6679L64.4536 81.8857L64.4697 76.6741L84.9701 88.4563Z" fill="black"/>
<path opacity="0.2" d="M64.4536 81.9193L69.008 79.2847L64.4697 76.6741L64.4536 81.9193Z" fill="black"/>
<path d="M61.0097 85.1231L42.9013 95.6104L17.8417 81.2063V79.9098L34.8103 70.0796L61.0097 85.1231Z" fill="#80B34F"/>
<path opacity="0.5" d="M38.238 72.0508L56.4524 82.5221L42.8678 90.3827L24.6534 79.913L38.238 72.0508ZM44.3191 86.92L53.4825 81.6156C50.3616 82.1352 46.3001 81.435 43.2242 79.6652C40.15 77.8971 38.9315 75.5647 39.8193 73.7598L30.6543 79.0641C31.6079 79.6125 31.8262 80.22 30.7779 80.8259L41.2625 86.8545C42.3124 86.247 43.3655 86.3701 44.3191 86.92Z" fill="black"/>
<path opacity="0.4" d="M59.8734 84.4916L42.8983 94.3138L17.8387 79.9066L17.8354 81.2095L42.8951 95.6168L61.0035 85.1247L59.8734 84.4916Z" fill="black"/>
<path opacity="0.1" d="M27.845 13.5586C35.3869 9.19426 42.9305 4.82828 50.4741 0.463908C51.7166 -0.253896 53.4392 -0.154778 55.3367 0.935516L32.7076 14.0318C30.8101 12.9399 29.0891 12.8392 27.845 13.5586Z" fill="white"/>
<path opacity="0.2" d="M105.448 29.7468L82.8173 42.8415C86.5915 45.0093 89.6448 50.2785 89.632 54.5965L89.4907 104.114C89.4843 106.256 88.7218 107.767 87.4953 108.477C95.0389 104.112 102.581 99.7462 110.124 95.3818C111.353 94.6736 112.113 93.1613 112.12 91.0191L112.261 41.5018C112.274 37.1838 109.221 31.9146 105.448 29.7468Z" fill="black"/>
<path opacity="0.15" d="M32.7076 14.0302L55.3368 0.933838L105.448 29.7467L82.8173 42.8414L32.7076 14.0302Z" fill="black"/>
<defs>
<linearGradient id="paint0_linear_802_12" x1="111.289" y1="117.089" x2="100.131" y2="98.0741" gradientUnits="userSpaceOnUse">
<stop stop-opacity="0"/>
<stop offset="1"/>
</linearGradient>
<linearGradient id="paint1_linear_802_12" x1="103.512" y1="106.785" x2="97.4854" y2="96.5155" gradientUnits="userSpaceOnUse">
<stop stop-opacity="0"/>
<stop offset="1"/>
</linearGradient>
</defs>
</svg>
